<svg width="50" height="50" viewBox="0 0 50 50" fill="none" xmlns="http://www.w3.org/2000/svg">
<path d="M35.4193 15.6253V8.33366C35.4193 6.03247 33.5538 4.16699 31.2526 4.16699H18.7526C16.4514 4.16699 14.5859 6.03247 14.5859 8.33366V15.6253M41.6693 29.167C41.6693 38.3717 34.2073 45.8337 25.0026 45.8337C15.7979 45.8337 8.33594 38.3717 8.33594 29.167C8.33594 19.9622 15.7979 12.5003 25.0026 12.5003C34.2073 12.5003 41.6693 19.9622 41.6693 29.167ZM20.8279 25.3744L18.2365 25.7659C16.737 25.9924 16.1383 27.9083 17.2233 29.0079L19.0985 30.9083C19.5294 31.345 19.726 31.9741 19.6243 32.5907L19.1816 35.2741C18.9255 36.8268 20.4929 38.0109 21.8341 37.2778L24.1519 36.0108C24.6845 35.7197 25.3207 35.7197 25.8533 36.0108L28.1711 37.2778C29.5123 38.0109 31.0798 36.8268 30.8236 35.2741L30.3809 32.5907C30.2792 31.9741 30.4758 31.345 30.9067 30.9083L32.7819 29.0079C33.8669 27.9083 33.2682 25.9924 31.7687 25.7659L29.1773 25.3744C28.5819 25.2844 28.0671 24.8956 27.8008 24.3346L26.6419 21.8932C25.9714 20.4805 24.0339 20.4805 23.3633 21.8932L22.2044 24.3346C21.9381 24.8956 21.4233 25.2844 20.8279 25.3744Z" stroke="#006CCF" stroke-width="3" stroke-linecap="round" stroke-linejoin="round"/>
</svg>