<svg width="50" height="50" viewBox="0 0 50 50" fill="none" xmlns="http://www.w3.org/2000/svg">
<path d="M24.9994 35.4167C18.0958 35.4167 12.4994 29.8202 12.4994 22.9167M24.9994 35.4167C31.9029 35.4167 37.4993 29.8202 37.4993 22.9167M24.9994 35.4167V43.75M12.4994 22.9167L12.4994 10.4167C12.4994 8.11548 14.3648 6.25 16.666 6.25L33.3327 6.25C35.6339 6.25 37.4994 8.11548 37.4994 10.4167L37.4993 22.9167M12.4994 22.9167L12.4993 14.5833C12.4993 12.2821 10.6339 10.4167 8.33268 10.4167C6.0315 10.4167 4.16602 12.2821 4.16602 14.5833C4.16602 19.1857 7.89698 22.9167 12.4994 22.9167ZM37.4993 22.9167L37.4994 14.5833C37.4994 12.2821 39.3648 10.4167 41.666 10.4167C43.9672 10.4167 45.8327 12.2821 45.8327 14.5833C45.8327 19.1857 42.1017 22.9167 37.4993 22.9167ZM24.9994 43.75H18.7494M24.9994 43.75H31.2494" stroke="#006CCF" stroke-width="3" stroke-linecap="round"/>
</svg>