<svg width="50" height="50" viewBox="0 0 50 50" fill="none" xmlns="http://www.w3.org/2000/svg">
<path d="M16.666 37.4998H33.3327M16.666 37.4998C16.666 42.1022 20.397 45.8332 24.9993 45.8332C29.6017 45.8332 33.3327 42.1022 33.3327 37.4998M16.666 37.4998V32.893C16.666 31.531 15.9714 30.2838 14.9817 29.348C12.1702 26.6896 10.416 22.9246 10.416 18.7498C10.416 10.6957 16.9452 4.1665 24.9993 4.1665C33.0535 4.1665 39.5827 10.6957 39.5827 18.7498C39.5827 22.9246 37.8285 26.6896 35.017 29.348C34.0273 30.2838 33.3327 31.531 33.3327 32.893V37.4998M20.8327 18.7498L24.9993 22.9165M24.9993 22.9165L29.166 18.7498M24.9993 22.9165V37.4998" stroke="#006CCF" stroke-width="3" stroke-linecap="round" stroke-linejoin="round"/>
</svg>