<svg width="50" height="50" viewBox="0 0 50 50" fill="none" xmlns="http://www.w3.org/2000/svg">
<path d="M45.8327 24.9998C45.8327 36.5058 36.5053 45.8332 24.9994 45.8332M45.8327 24.9998C45.8327 13.4939 36.5053 4.1665 24.9994 4.1665M45.8327 24.9998C45.8327 21.5481 36.5053 18.7498 24.9994 18.7498C13.4934 18.7498 4.16602 21.5481 4.16602 24.9998M45.8327 24.9998C45.8327 28.4516 36.5053 31.2498 24.9994 31.2498C13.4934 31.2498 4.16602 28.4516 4.16602 24.9998M24.9994 45.8332C13.4934 45.8332 4.16602 36.5058 4.16602 24.9998M24.9994 45.8332C29.6017 45.8332 33.3327 36.5058 33.3327 24.9998C33.3327 13.4939 29.6017 4.1665 24.9994 4.1665M24.9994 45.8332C20.397 45.8332 16.666 36.5058 16.666 24.9998C16.666 13.4939 20.397 4.1665 24.9994 4.1665M4.16602 24.9998C4.16602 13.4939 13.4934 4.1665 24.9994 4.1665" stroke="#006CCF" stroke-width="3"/>
</svg>