<svg width="50" height="50" viewBox="0 0 50 50" fill="none" xmlns="http://www.w3.org/2000/svg">
<path d="M41.666 6.25C43.9672 6.25 45.8327 8.11548 45.8327 10.4167V39.5833C45.8327 41.8845 43.9672 43.75 41.666 43.75C39.3648 43.75 37.4994 41.8845 37.4994 39.5833V10.4167C37.4994 8.11548 39.3648 6.25 41.666 6.25Z" stroke="#006CCF" stroke-width="3"/>
<path d="M8.33268 22.9167C10.6339 22.9167 12.4993 24.7821 12.4993 27.0833L12.4993 39.5833C12.4993 41.8845 10.6339 43.75 8.33268 43.75C6.0315 43.75 4.16602 41.8845 4.16602 39.5833L4.16602 27.0833C4.16602 24.7821 6.0315 22.9167 8.33268 22.9167Z" stroke="#006CCF" stroke-width="3"/>
<path d="M24.9994 14.5833C27.3005 14.5833 29.166 16.4488 29.166 18.75V39.5833C29.166 41.8845 27.3005 43.75 24.9994 43.75C22.6982 43.75 20.8327 41.8845 20.8327 39.5833L20.8327 18.75C20.8327 16.4488 22.6982 14.5833 24.9994 14.5833Z" stroke="#006CCF" stroke-width="3"/>
</svg>